# Made in Blockbench 4.12.3
mtllib materials.mtl

o cube
v 0.5 0 0.5
v 0.5 -0.5 0.5
v 0.5 -0.5 -0.5
v -0.5 0 0.5
v -0.5 -0.5 0.5
v -0.5 -0.5 -0.5
v -0.5 0 -0.5
v 0.5 0 -0.5
vt 0.25 0.625
vt 0.25 0.75
vt 0 0.75
vt 0 0.625
vt 0.5 0.625
vt 0.5 0.75
vt 0.25 0.75
vt 0.25 0.625
vt 0.25 0.25
vt 0.25 0.5
vt 0 0.5
vt 0 0.25
vt 0.25 0.25
vt 0.5 0.25
vt 0.5 0.5
vt 0.25 0.5
vt 0.5 0.875
vt 0.5 1
vt 0.25 1
vt 0.25 0.875
vt 0.25 0.875
vt 0.25 1
vt 0 1
vt 0 0.875
vn 1 0 0
vn -1 0 0
vn 0 1 0
vn 0 -1 0
vn 0 0 1
vn 0 0 -1
usemtl m_90ab92f1-39eb-1955-f29b-50f348abfb9b
f 3/1/1 8/2/1 1/3/1 2/4/1
f 5/5/2 4/6/2 7/7/2 6/8/2
f 1/9/3 8/10/3 7/11/3 4/12/3
f 3/13/4 2/14/4 5/15/4 6/16/4
f 2/17/5 1/18/5 4/19/5 5/20/5
f 6/21/6 7/22/6 8/23/6 3/24/6