# Made in Blockbench 4.12.3
mtllib materials.mtl

o cube
v 0.5 0.5 0.5
v 0.5 -0.5 0.5
v 0.5 -0.5 -0.5
v -0.5 0.5 0.5
v -0.5 -0.5 0.5
v -0.5 -0.5 -0.5
v 0.5 0.5 0
v -0.5 0.5 0
v -0.5 -0.5 0
v 0.5 -0.5 0
v -0.5 0 0.5
v 0.5 0 0.5
v 0.5 0 0
v 0.5 0 -0.5
v -0.5 0 -0.5
v -0.5 0 0
v -0.5 0 -0.5
v 0.5 0 0
v -0.5 0 0
v 0.5 0 -0.5
vt 0.25 0.5
vt 0.25 0.625
vt 0.125 0.625
vt 0.125 0.5
vt 0.375 0.5
vt 0.375 0.625
vt 0.25 0.625
vt 0.25 0.5
vt 0 0.5
vt 0 0.375
vt 0.25 0.375
vt 0.25 0.5
vt 0.25 0.25
vt 0.375 0.25
vt 0.375 0.5
vt 0.25 0.5
vt 0.5 0.75
vt 0.5 0.875
vt 0.25 0.875
vt 0.25 0.75
vt 0.25 0.75
vt 0.25 0.875
vt 0 0.875
vt 0 0.75
vt 0.25 0.25
vt 0.25 0.375
vt 0 0.375
vt 0 0.25
vt 0.5 0.5
vt 0.5 0.625
vt 0.375 0.625
vt 0.375 0.5
vt 0.5 0.5
vt 0.375 0.5
vt 0.375 0.25
vt 0.5 0.25
vt 0.125 0.5
vt 0.125 0.625
vt 0 0.625
vt 0 0.5
vt 0.375 0.75
vt 0.375 0.625
vt 0.5 0.625
vt 0.5 0.75
vt 0.25 1
vt 0.25 0.875
vt 0.5 0.875
vt 0.5 1
vt 0 0.75
vt 0 0.625
vt 0.125 0.625
vt 0.125 0.75
vt 0 0.875
vt 0.25 0.875
vt 0.25 1
vt 0 1
vn 1 0 0
vn -1 0 0
vn 0 1 0
vn 0 -1 0
vn 0 0 1
vn 0 0 -1
vn 0 1 0
vn -1 0 0
vn 0 -1 0
vn 1 0 0
vn -1 0 0
vn 0 0 1
vn 1 0 0
vn 0 0 -1
usemtl m_90ab92f1-39eb-1955-f29b-50f348abfb9b
f 3/1/1 14/2/1 13/3/1 10/4/1
f 9/5/2 16/6/2 15/7/2 6/8/2
f 17/9/3 19/10/3 18/11/3 20/12/3
f 3/13/4 10/14/4 9/15/4 6/16/4
f 2/17/5 12/18/5 11/19/5 5/20/5
f 6/21/6 15/22/6 14/23/6 3/24/6
f 1/25/7 7/26/7 8/27/7 4/28/7
f 5/29/8 11/30/8 16/31/8 9/32/8
f 5/33/9 9/34/9 10/35/9 2/36/9
f 10/37/10 13/38/10 12/39/10 2/40/10
f 8/41/11 16/42/11 11/43/11 4/44/11
f 4/45/12 11/46/12 12/47/12 1/48/12
f 1/49/13 12/50/13 13/51/13 7/52/13
f 18/53/14 19/54/14 8/55/14 7/56/14