# Made in Blockbench 4.12.3
mtllib materials.mtl

o cube
v 0.5 -0.5 -0.5
v -0.5 -0.5 -0.5
v 0.5 -0.5 0.5
v 0.5 0.5 0.5
v -0.5 -0.5 0.5
v 0 0.5 0.5
v 0 -0.5 -0.5
v 0 -0.5 0.5
v 0 0.5 0
v 0.5 0.5 0
v 0.5 -0.5 0
v 0 -0.5 0
v -0.5 -0.5 0
v 0.5 0 0.5
v 0.5 0 0
v 0.5 0 -0.5
v 0 0 0
v 0 0 0.5
v -0.5 0 -0.5
v -0.5 0 0
v 0 0 -0.5
v -0.5 0 0.5
vt 0.125 0.75
vt 0.125 0.875
vt 0 0.875
vt 0 0.75
vt 0.125 0.5
vt 0.125 0.625
vt 0 0.625
vt 0 0.5
vt 0.5 0.75
vt 0.5 0.875
vt 0.375 0.875
vt 0.375 0.75
vt 0.5 0.5
vt 0.5 0.625
vt 0.375 0.625
vt 0.375 0.5
vt 0.25 0.25
vt 0.25 0.375
vt 0.125 0.375
vt 0.125 0.25
vt 0.375 0.375
vt 0.375 0.25
vt 0.5 0.25
vt 0.5 0.375
vt 0.25 0.75
vt 0.25 0.875
vt 0.125 0.875
vt 0.125 0.75
vt 0.375 0.5
vt 0.375 0.375
vt 0.5 0.375
vt 0.5 0.5
vt 0.375 0.75
vt 0.375 0.875
vt 0.25 0.875
vt 0.25 0.75
vt 0.125 0.5
vt 0.125 0.375
vt 0.25 0.375
vt 0.25 0.5
vt 0.125 0.796875
vt 0.125 0.921875
vt 0 0.921875
vt 0 0.796875
vt 0.375 0.25
vt 0.375 0.375
vt 0.25 0.375
vt 0.25 0.25
vt 0.375 0.375
vt 0.375 0.5
vt 0.25 0.5
vt 0.25 0.375
vt 0.375 0.5
vt 0.375 0.625
vt 0.25 0.625
vt 0.25 0.5
vt 0.375 1
vt 0.375 0.875
vt 0.5 0.875
vt 0.5 1
vt 0 0.75
vt 0 0.625
vt 0.125 0.625
vt 0.125 0.75
vt 0.125 0.625
vt 0.25 0.625
vt 0.25 0.75
vt 0.125 0.75
vt 0.125 0.25
vt 0.125 0.375
vt 0 0.375
vt 0 0.25
vt 0 0.5
vt 0 0.375
vt 0.125 0.375
vt 0.125 0.5
vt 0 0.625
vt 0.125 0.625
vt 0.125 0.75
vt 0 0.75
vn 0 0 -1
vn 1 0 0
vn 0 0 1
vn -1 0 0
vn 0 1 0
vn 0 -1 0
vn 0 0 -1
vn 0 -1 0
vn 0 0 1
vn 0 1 0
vn 1 0 0
vn 0 -1 0
vn 0 -1 0
vn -1 0 0
vn 0 0 1
vn 1 0 0
vn 0 0 -1
vn 0 1 0
vn 0 1 0
vn -1 0 0
usemtl m_0633d76c-926b-e315-d549-c69726978361
f 7/1/1 21/2/1 16/3/1 1/4/1
f 11/5/2 15/6/2 14/7/2 3/8/2
f 3/9/3 14/10/3 18/11/3 8/12/3
f 5/13/4 22/14/4 20/15/4 13/16/4
f 4/17/5 10/18/5 9/19/5 6/20/5
f 8/21/6 12/22/6 11/23/6 3/24/6
f 2/25/7 19/26/7 21/27/7 7/28/7
f 5/29/8 13/30/8 12/31/8 8/32/8
f 8/33/9 18/34/9 22/35/9 5/36/9
f 21/37/10 17/38/10 15/39/10 16/40/10
f 1/41/11 16/42/11 15/43/11 11/44/11
f 1/45/12 11/46/12 12/47/12 7/48/12
f 7/49/13 12/50/13 13/51/13 2/52/13
f 13/53/14 20/54/14 19/55/14 2/56/14
f 6/57/15 18/58/15 14/59/15 4/60/15
f 4/61/16 14/62/16 15/63/16 10/64/16
f 15/65/17 17/66/17 9/67/17 10/68/17
f 18/69/18 17/70/18 20/71/18 22/72/18
f 19/73/19 20/74/19 17/75/19 21/76/19
f 17/77/20 18/78/20 6/79/20 9/80/20