# Made in Blockbench 4.12.3
mtllib materials.mtl

o cube
v 0.5 -0.5 -0.5
v -0.5 -0.5 -0.5
v -0.5 0.5 -0.5
v 0.5 -0.5 0.5
v 0.5 0.5 0.5
v -0.5 -0.5 0.5
v -0.5 0.5 0.5
v 0 0.5 0.5
v 0 0.5 -0.5
v 0 -0.5 -0.5
v 0 -0.5 0.5
v 0 0.5 0
v 0.5 0.5 0
v 0.5 -0.5 0
v 0 -0.5 0
v -0.5 -0.5 0
v -0.5 0.5 0
v -0.5 0 -0.5
v -0.5 0 0
v -0.5 0 0.5
v 0 0 0.5
v 0.5 0 0.5
v 0 0 -0.5
v 0 0 0
v 0.5 0 0
v 0.5 0 -0.5
vt 0.125 0.75
vt 0.125 0.875
vt 0 0.875
vt 0 0.75
vt 0.125 0.4999999999999999
vt 0.125 0.6249999999999999
vt 0 0.6249999999999999
vt 0 0.4999999999999999
vt 0.5 0.75
vt 0.5 0.875
vt 0.375 0.875
vt 0.375 0.75
vt 0.5 0.4999999999999999
vt 0.5 0.6249999999999999
vt 0.375 0.6249999999999999
vt 0.375 0.4999999999999999
vt 0.25 0.2499999999999999
vt 0.25 0.3749999999999999
vt 0.125 0.3749999999999999
vt 0.125 0.2499999999999999
vt 0.5 0.3749999999999999
vt 0.375 0.3749999999999999
vt 0.375 0.2499999999999999
vt 0.5 0.2499999999999999
vt 0.125 0.2499999999999999
vt 0.125 0.3749999999999999
vt 0 0.3749999999999999
vt 0 0.2499999999999999
vt 0.25 0.75
vt 0.25 0.875
vt 0.125 0.875
vt 0.125 0.75
vt 0.5 0.4999999999999999
vt 0.375 0.4999999999999999
vt 0.375 0.3749999999999999
vt 0.5 0.3749999999999999
vt 0.375 0.75
vt 0.375 0.875
vt 0.25 0.875
vt 0.25 0.75
vt 0.125 0.4999999999999999
vt 0.125 0.3749999999999999
vt 0.25 0.3749999999999999
vt 0.25 0.4999999999999999
vt 0.125 0.796875
vt 0.125 0.921875
vt 0 0.921875
vt 0 0.796875
vt 0.25 0.2499999999999999
vt 0.375 0.2499999999999999
vt 0.375 0.3749999999999999
vt 0.25 0.3749999999999999
vt 0.25 0.3749999999999999
vt 0.375 0.3749999999999999
vt 0.375 0.4999999999999999
vt 0.25 0.4999999999999999
vt 0.375 0.4999999999999999
vt 0.375 0.6249999999999999
vt 0.25 0.6249999999999999
vt 0.25 0.4999999999999999
vt 0 0.4999999999999999
vt 0 0.3749999999999999
vt 0.125 0.3749999999999999
vt 0.125 0.4999999999999999
vt 0.125 1
vt 0.125 0.875
vt 0.25 0.875
vt 0.25 1
vt 0.25 0.75
vt 0.25 0.6249999999999999
vt 0.375 0.6249999999999999
vt 0.375 0.75
vt 0.375 0.75
vt 0.375 0.6249999999999999
vt 0.5 0.6249999999999999
vt 0.5 0.75
vt 0.25 1
vt 0.25 0.875
vt 0.375 0.875
vt 0.375 1
vt 0.375 1
vt 0.375 0.875
vt 0.5 0.875
vt 0.5 1
vt 0 0.75
vt 0 0.6249999999999999
vt 0.125 0.6249999999999999
vt 0.125 0.75
vt 0 0.625
vt 0.125 0.625
vt 0.125 0.75
vt 0 0.75
vt 0.125 0.625
vt 0.25 0.625
vt 0.25 0.75
vt 0.125 0.75
vn 0 0 -1
vn 1 0 0
vn 0 0 1
vn -1 0 0
vn 0 1 0
vn 0 -1 0
vn 0 1 0
vn 0 0 -1
vn 0 -1 0
vn 0 0 1
vn 0 1 0
vn 1 0 0
vn 0 -1 0
vn 0 -1 0
vn -1 0 0
vn 0 1 0
vn 0 0 -1
vn -1 0 0
vn -1 0 0
vn 0 0 1
vn 0 0 1
vn 1 0 0
vn 1 0 0
vn 0 0 -1
usemtl m_0633d76c-926b-e315-d549-c69726978361
f 10/1/1 23/2/1 26/3/1 1/4/1
f 14/5/2 25/6/2 22/7/2 4/8/2
f 4/9/3 22/10/3 21/11/3 11/12/3
f 6/13/4 20/14/4 19/15/4 16/16/4
f 5/17/5 13/18/5 12/19/5 8/20/5
f 11/21/6 15/22/6 14/23/6 4/24/6
f 8/25/7 12/26/7 17/27/7 7/28/7
f 2/29/8 18/30/8 23/31/8 10/32/8
f 6/33/9 16/34/9 15/35/9 11/36/9
f 11/37/10 21/38/10 20/39/10 6/40/10
f 23/41/11 24/42/11 25/43/11 26/44/11
f 1/45/12 26/46/12 25/47/12 14/48/12
f 1/49/13 14/50/13 15/51/13 10/52/13
f 10/53/14 15/54/14 16/55/14 2/56/14
f 16/57/15 19/58/15 18/59/15 2/60/15
f 3/61/16 17/62/16 12/63/16 9/64/16
f 9/65/17 23/66/17 18/67/17 3/68/17
f 3/69/18 18/70/18 19/71/18 17/72/18
f 17/73/19 19/74/19 20/75/19 7/76/19
f 7/77/20 20/78/20 21/79/20 8/80/20
f 8/81/21 21/82/21 22/83/21 5/84/21
f 5/85/22 22/86/22 25/87/22 13/88/22
f 24/89/23 23/90/23 9/91/23 12/92/23
f 25/93/24 24/94/24 12/95/24 13/96/24