{"asset":{"version":"2.0","generator":"Blockbench 4.12.3 glTF exporter"},"scenes":[{"nodes":[7],"name":"blockbench_export"}],"scene":0,"nodes":[{"translation":[-0.11875,0.75,0],"name":"Left Leg"},{"translation":[0.11875,0.75,0],"name":"Right Leg"},{"translation":[0,0.75,0],"name":"Head"},{"translation":[0.3125,0.625,0],"name":"Right Arm"},{"translation":[-0.3125,0.625,0],"name":"Left Arm"},{"translation":[0,0.75,0],"name":"Body","children":[2,3,4]},{"name":"Root","children":[0,1,5]},{"name":"Root","mesh":0,"children":[6],"skin":0}],"bufferViews":[{"buffer":0,"byteOffset":0,"byteLength":3456,"target":34962,"byteStride":12},{"buffer":0,"byteOffset":3456,"byteLength":3456,"target":34962,"byteStride":12},{"buffer":0,"byteOffset":6912,"byteLength":2304,"target":34962,"byteStride":8},{"buffer":0,"byteOffset":9216,"byteLength":2304,"target":34962,"byteStride":8},{"buffer":0,"byteOffset":11520,"byteLength":4608,"target":34962,"byteStride":16},{"buffer":0,"byteOffset":16128,"byteLength":864,"target":34963},{"buffer":0,"byteOffset":16992,"byteLength":448}],"buffers":[{"byteLength":17440,"uri":"data:application/octet-stream;base64,"}],"accessors":[{"bufferView":0,"componentType":5126,"count":288,"max":[0.515625,2.03125,0.28125],"min":[-0.515625,-0.015625,-0.28125],"type":"VEC3"},{"bufferView":1,"componentType":5126,"count":288,"max":[1,1,1],"min":[-1,-1,-1],"type":"VEC3"},{"bufferView":2,"componentType":5126,"count":288,"max":[0.999755859375,0.999755859375],"min":[0.000244140625,0.000244140625],"type":"VEC2"},{"bufferView":3,"componentType":5123,"count":288,"max":[0,6,0,0],"min":[0,1,0,0],"type":"VEC4"},{"bufferView":4,"componentType":5126,"count":288,"max":[0,1,0,0],"min":[0,1,0,0],"type":"VEC4"},{"bufferView":5,"componentType":5123,"count":432,"max":[287],"min":[0],"type":"SCALAR"},{"bufferView":6,"componentType":5126,"count":7,"max":[1,0,0,0,0,1,0,0,0,0,1,0,0.3125,0,0,1],"min":[1,0,0,0,0,1,0,0,0,0,1,0,-0.3125,-1.5,0,1],"type":"MAT4"}],"materials":[{"pbrMetallicRoughness":{"metallicFactor":0,"roughnessFactor":1},"alphaMode":"MASK","alphaCutoff":0.05,"doubleSided":true}],"meshes":[{"primitives":[{"mode":4,"attributes":{"POSITION":0,"NORMAL":1,"TEXCOORD_0":2,"JOINTS_0":3,"WEIGHTS_0":4},"indices":5,"material":0}]}],"skins":[{"inverseBindMatrices":6,"joints":[6,0,1,5,2,3,4],"skeleton":6}]}